<?xml version="1.0" standalone="no"?>
<!DOCTYPE svg PUBLIC "-//W3C//DTD SVG 20010904//EN"
 "http://www.w3.org/TR/2001/REC-SVG-20010904/DTD/svg10.dtd">
<svg version="1.0" xmlns="http://www.w3.org/2000/svg"
 width="542.000000pt" height="542.000000pt" viewBox="0 0 542.000000 542.000000"
 preserveAspectRatio="xMidYMid meet">
<metadata>
Created by potrace 1.11, written by Peter Selinger 2001-2013
</metadata>
<g transform="translate(0.000000,542.000000) scale(0.100000,-0.100000)"
fill="#000000" stroke="none">
<path d="M2655 3790 c-22 -10 -83 -39 -135 -63 -52 -25 -201 -94 -330 -155
-129 -60 -275 -129 -325 -152 -137 -64 -221 -104 -320 -150 -114 -54 -224
-105 -300 -140 -33 -15 -177 -83 -320 -150 -143 -67 -305 -143 -360 -168 -55
-26 -124 -59 -155 -73 l-55 -27 135 -65 c74 -35 155 -73 180 -85 88 -40 284
-131 499 -233 68 -33 125 -59 126 -59 2 0 59 -26 126 -59 68 -32 185 -86 259
-121 74 -35 182 -85 240 -112 58 -28 134 -64 170 -80 36 -17 110 -52 165 -78
55 -26 179 -84 276 -129 l176 -82 119 56 c65 32 175 83 244 115 148 68 255
118 365 170 44 21 143 67 220 103 77 35 185 86 240 112 55 26 195 91 310 145
237 110 356 166 465 217 41 19 143 67 225 105 83 38 154 73 159 78 4 4 -2 11
-14 15 -12 4 -72 31 -134 60 -251 119 -349 165 -351 165 -2 0 -69 32 -150 70
-81 39 -148 70 -150 70 -2 0 -69 32 -150 70 -81 39 -148 70 -150 70 -1 0 -99
45 -216 101 -118 56 -239 113 -269 126 -30 14 -98 46 -150 70 -52 25 -120 56
-150 70 -83 38 -212 99 -339 159 -62 30 -119 54 -125 54 -6 -1 -29 -10 -51
-20z m115 -76 c62 -30 738 -347 1065 -499 454 -211 724 -338 968 -452 53 -25
97 -49 97 -52 0 -3 -82 -44 -183 -91 -100 -46 -236 -110 -302 -141 -66 -31
-140 -66 -165 -77 -25 -11 -92 -43 -150 -70 -58 -27 -132 -62 -165 -77 -33
-15 -115 -54 -183 -86 -68 -33 -125 -59 -127 -59 -1 0 -50 -22 -107 -49 -56
-27 -262 -124 -457 -215 l-354 -165 -51 23 c-28 13 -91 43 -141 66 -49 23
-117 55 -150 70 -33 15 -118 55 -189 89 -70 33 -130 61 -131 61 -2 0 -58 26
-126 59 -68 32 -160 75 -204 96 -44 20 -251 117 -460 215 -209 98 -416 195
-460 215 -44 21 -127 60 -185 87 l-105 50 40 19 c22 10 96 45 165 78 69 32
150 70 180 84 30 14 100 46 155 72 182 86 269 127 330 155 67 31 165 77 300
140 50 23 117 55 150 70 123 57 214 100 349 164 76 36 139 66 141 66 2 0 252
117 340 159 52 25 52 25 115 -5z"/>
<path d="M2429 3212 c-18 -13 -19 -30 -19 -495 1 -385 3 -486 14 -499 18 -25
137 -26 157 -2 11 13 14 73 14 280 0 145 3 260 6 256 3 -4 52 -124 109 -267
57 -143 110 -266 119 -273 10 -8 40 -12 85 -10 114 5 114 -6 -23 337 l-118
294 59 171 c55 160 58 173 44 196 -13 22 -21 25 -80 25 -44 1 -71 -4 -84 -15
-12 -9 -36 -69 -62 -152 -24 -76 -46 -138 -50 -138 -3 0 -5 61 -5 135 1 121
-1 138 -18 153 -24 21 -120 24 -148 4z"/>
</g>
</svg>
